<!DOCTYPE svg PUBLIC "-//W3C//DTD SVG 1.1//EN" "http://www.w3.org/Graphics/SVG/1.1/DTD/svg11.dtd">
<svg version="1.1" xmlns="http://www.w3.org/2000/svg" xmlns:xlink="http://www.w3.org/1999/xlink" x="0px" y="0px" width="300px" height="110px" viewBox="0 0 298 109">
	<path fill="#A0220D" d="M31.659,17.827c-2.767,0.307-4.893,1.409-6.378,3.305c-2.767-2.51-6.212-3.767-10.336-3.767 c-4.123,0-7.646,1.768-10.565,5.304C1.46,26.203,0,31.083,0,37.307c0,6.225,1.152,11.104,3.458,14.639s5.687,5.303,10.144,5.303 c3.381,0,6.531-1.153,9.451-3.458v2.996c0,6.096-2.869,9.145-8.606,9.145c-3.586,0-7.044-0.794-10.374-2.382 c-0.718,0.819-1.319,1.946-1.806,3.381c-0.487,1.433-0.729,2.767-0.729,3.996c4.251,1.74,8.887,2.613,13.909,2.613 c6.197,0,10.731-1.794,13.6-5.381c2.511-3.227,3.767-9.017,3.767-17.365v-21.44c0-3.021,0.716-5.147,2.15-6.378 c-0.153-0.869-0.563-1.817-1.229-2.842C33.067,19.108,32.376,18.34,31.659,17.827z M23.053,45.567 c-2.102,2.356-4.483,3.535-7.146,3.535c-1.69,0-3.062-0.947-4.111-2.843c-1.051-1.896-1.575-4.828-1.575-8.799 c0-3.97,0.563-7.032,1.691-9.184c1.126-2.15,2.715-3.228,4.764-3.228s4.175,1.026,6.378,3.074V45.567z"/>
	<path fill="#A0220D" d="M72.993,45.722v-27.28c-1.229-0.255-2.933-0.384-5.11-0.384s-3.83,0.129-4.956,0.384v26.204 c-2.357,2.356-4.894,3.534-7.608,3.534c-1.536,0-2.587-0.472-3.149-1.422c-0.564-0.946-0.846-2.521-0.846-4.726V24.128 c0-2.1-0.41-3.676-1.229-4.726c-0.82-1.05-2.344-1.575-4.572-1.575s-4.188,0.718-5.879,2.151c1.076,1.69,1.614,4.125,1.614,7.301 v16.828c0,3.945,0.896,7.121,2.688,9.528c1.794,2.409,4.406,3.612,7.839,3.612c4.2,0,8.272-1.844,12.218-5.533 c1.434,3.278,4.021,5.098,7.763,5.456c0.716-0.514,1.395-1.255,2.035-2.229c0.641-0.973,1.088-1.921,1.345-2.843 C73.71,50.869,72.993,48.744,72.993,45.722z"/>
	<path fill="#A0220D" d="M86.356,12.679c2.15,0,3.814-0.358,4.994-1.076c0.511-1.178,0.769-2.509,0.769-3.996 c0-1.485-0.258-2.815-0.769-3.996c-1.076-0.665-2.703-0.998-4.88-0.998c-2.178,0-3.881,0.333-5.11,0.998 c-0.513,1.181-0.768,2.511-0.768,3.996c0,1.487,0.255,2.818,0.768,3.996C82.539,12.32,84.204,12.679,86.356,12.679z"/>
	<path fill="#A0220D" d="M82.897,29.815v26.74c1.639,0.257,3.343,0.385,5.11,0.385s3.42-0.128,4.956-0.385V26.203 c0-2.51-0.666-4.482-1.998-5.918c-1.333-1.433-3.125-2.151-5.379-2.151H84.28c-1.486,0-3.433,0.129-5.84,0.385 c-0.308,1.18-0.461,2.356-0.461,3.534c0,1.18,0.153,2.357,0.461,3.535h0.999C81.744,25.588,82.897,26.998,82.897,29.815z"/>
	<path fill="#A0220D" d="M114.272,49.179c-2.152,0-3.229-1.177-3.229-3.534V6.224c0-2.254-0.409-3.854-1.229-4.804 C108.996,0.475,107.587,0,105.589,0h-3.842l-0.537,0.537v47.027c0,3.229,0.689,5.599,2.073,7.108 c1.384,1.512,3.561,2.268,6.532,2.268c1.844,0,4.328-0.23,7.453-0.691c0.154-0.616,0.231-1.588,0.231-2.92s-0.283-2.715-0.846-4.15 H114.272z"/>
	<path fill="#A0220D" d="M130.93,56.94c1.845,0,4.329-0.23,7.454-0.691c0.154-0.616,0.231-1.588,0.231-2.92s-0.283-2.715-0.846-4.15 h-2.383c-2.15,0-3.227-1.177-3.227-3.534V6.224c0-2.254-0.411-3.854-1.23-4.804C130.11,0.475,128.702,0,126.704,0h-3.842 l-0.539,0.537v47.027c0,3.229,0.691,5.599,2.075,7.108C125.781,56.185,127.959,56.94,130.93,56.94z"/>
	<path fill="#A0220D" d="M157.823,57.633c5.79,0,10.707-1.461,14.756-4.382c-0.411-2.561-1.359-4.583-2.845-6.07 c-3.842,1.743-7.21,2.613-10.104,2.613s-4.931-0.794-6.108-2.382c-1.18-1.588-1.845-3.816-1.998-6.687h21.208 c0.563-2.201,0.846-4.558,0.846-7.067c0-4.767-1.384-8.672-4.149-11.72s-6.75-4.573-11.949-4.573s-9.196,1.858-11.987,5.572 c-2.793,3.714-4.188,8.62-4.188,14.715c0,4.56,0.691,8.377,2.074,11.45C145.989,54.788,150.805,57.633,157.823,57.633z  M157.9,24.589c2.152,0,3.739,0.757,4.765,2.267c1.024,1.513,1.537,3.472,1.537,5.88v0.923h-12.757 C151.754,27.612,153.905,24.589,157.9,24.589z"/>
	<path fill="#A0220D" d="M233.254,54.942c-1.076-1.587-1.614-4.021-1.614-7.301V29.815c0-3.586-0.858-6.494-2.574-8.722 c-1.718-2.229-4.215-3.344-7.492-3.344c-4.048,0-8.044,1.845-11.987,5.532c-1.743-3.688-4.715-5.532-8.914-5.532 c-3.535,0-7.097,1.667-10.682,4.994c-0.666-3.176-2.51-4.763-5.532-4.763h-3.766l-0.462,0.537l0.014,51.771 c-2.768-1.383-5.38-2.074-7.839-2.074c-4.201,0-7.761,1.78-10.683,5.34c-2.918,3.561-4.378,8.44-4.378,14.64 c0,6.197,1.153,11.079,3.456,14.639c2.306,3.561,5.623,5.34,9.953,5.34c4.328,0,7.978-1.664,10.949-4.995 c1.485,2.716,3.894,4.227,7.223,4.534c0.717-0.513,1.396-1.281,2.037-2.307c0.64-1.023,1.063-1.996,1.269-2.92 c-1.435-1.125-2.153-3.251-2.153-6.378l0.144-65.756c2.254-2.306,4.481-3.509,6.685-3.611c2.662,0,3.996,2.074,3.996,6.225v23.59 c1.536,0.257,3.2,0.385,4.995,0.385c1.791,0,3.456-0.128,4.995-0.385V30.429c2.354-2.459,4.558-3.688,6.607-3.688 c2.714,0,4.073,2.05,4.073,6.147v17.98c0,2.103,0.409,3.664,1.229,4.688c0.818,1.024,2.316,1.537,4.496,1.537 C229.475,57.094,231.458,56.377,233.254,54.942z M180.244,96.108c-1.949,2.563-4.253,3.843-6.918,3.843 c-1.688,0-3.072-0.946-4.148-2.843c-1.076-1.896-1.613-4.815-1.613-8.76c0-3.945,0.575-7.006,1.728-9.184 c1.152-2.177,2.678-3.267,4.572-3.267c1.896,0,4.021,0.744,6.38,2.229V96.108z"/>
	<path fill="#A0220D" d="M111.331,96.801V81.047c0-4.352-1.229-7.606-3.688-9.758c-2.458-2.152-5.609-3.229-9.451-3.229 c-5.738,0-11.348,1.152-16.829,3.459c0.308,3.177,1.179,5.559,2.612,7.146c5.174-1.793,9.068-2.689,11.681-2.689 c3.791,0,5.687,1.947,5.687,5.84v2.075c-1.537-0.154-3.688-0.231-6.455-0.231c-4.303,0-7.877,1.104-10.72,3.305 c-2.843,2.204-4.264,5.431-4.264,9.682c0,3.024,1.01,5.701,3.034,8.031c2.023,2.331,5.007,3.496,8.953,3.496 c3.943,0,7.58-1.613,10.911-4.841c1.538,2.562,3.969,4.021,7.301,4.38c0.665-0.513,1.331-1.281,1.997-2.307 c0.666-1.023,1.127-1.996,1.383-2.92C112.049,101.412,111.331,99.516,111.331,96.801z M101.342,97.186 c-2.255,2.255-4.663,3.381-7.224,3.381c-1.332,0-2.382-0.423-3.15-1.27c-0.769-0.845-1.153-2.048-1.153-3.609 c0-1.562,0.513-2.855,1.538-3.882c1.024-1.023,2.458-1.536,4.303-1.536s3.739,0.076,5.687,0.229V97.186z"/>
	<path fill="#A0220D" d="M151.267,81.433c0-3.944-0.884-7.121-2.65-9.528c-1.769-2.409-4.495-3.612-8.185-3.612 c-3.688,0-7.403,1.613-11.143,4.842c-0.666-3.074-2.458-4.611-5.379-4.611h-3.842l-0.46,0.538v38.037 c1.536,0.256,3.2,0.384,4.994,0.384c1.793,0,3.458-0.128,4.995-0.384V80.971c2.406-2.459,4.942-3.688,7.607-3.688 c1.537,0,2.586,0.475,3.149,1.422c0.564,0.947,0.846,2.549,0.846,4.803v17.905c0,2.101,0.409,3.663,1.229,4.687 c0.819,1.024,2.344,1.538,4.572,1.538s4.188-0.719,5.878-2.153c-1.076-1.585-1.613-4.021-1.613-7.299V81.433z"/>
	<path fill="#A0220D" d="M208.214,75.285c-1.536-4.1-4.381-6.403-8.529-6.917c-0.665,0.514-1.318,1.281-1.96,2.306 c-0.642,1.025-1.063,1.999-1.269,2.921c1.896,1.639,2.843,4.277,2.843,7.913v25.59c1.641,0.256,3.344,0.384,5.11,0.384 s3.421-0.128,4.957-0.384V82.586c1.845-3.177,4.251-4.766,7.224-4.766c1.587,0.104,2.768,0.282,3.534,0.538 c1.639-2.665,2.459-5.788,2.459-9.375c-1.382-0.357-2.92-0.538-4.61-0.538C213.413,68.445,210.16,70.725,208.214,75.285z"/>
	<path fill="#A0220D" d="M240.227,67.907c-5.2,0-9.196,1.858-11.988,5.571c-2.793,3.716-4.188,8.62-4.188,14.717 c0,4.559,0.692,8.376,2.076,11.45c2.612,5.686,7.428,8.528,14.446,8.528c5.788,0,10.707-1.461,14.754-4.381 c-0.41-2.561-1.357-4.583-2.842-6.069c-3.844,1.741-7.213,2.611-10.106,2.611c-2.896,0-4.931-0.793-6.108-2.382 c-1.179-1.586-1.845-3.815-1.999-6.687h21.21c0.562-2.2,0.847-4.557,0.847-7.067c0-4.766-1.385-8.672-4.151-11.719 C249.41,69.432,245.425,67.907,240.227,67.907z M246.95,84.199h-12.756c0.307-6.044,2.458-9.068,6.455-9.068 c2.151,0,3.739,0.756,4.765,2.268c1.024,1.512,1.536,3.472,1.536,5.878V84.199z"/>
	<path fill="#A0220D" d="M294.239,96.264v-27.28c-1.229-0.255-2.934-0.384-5.111-0.384s-3.829,0.129-4.956,0.384v26.203 c-2.357,2.356-4.893,3.536-7.607,3.536c-1.536,0-2.588-0.473-3.15-1.423c-0.564-0.947-0.845-2.521-0.845-4.726V74.67 c0-2.1-0.41-3.675-1.229-4.726c-0.82-1.05-2.344-1.576-4.572-1.576c-2.229,0-4.188,0.719-5.879,2.152 c1.075,1.689,1.614,4.124,1.614,7.3v16.829c0,3.944,0.896,7.121,2.688,9.527c1.793,2.41,4.405,3.613,7.839,3.613 c4.199,0,8.272-1.844,12.218-5.533c1.433,3.28,4.021,5.097,7.762,5.456c0.715-0.513,1.396-1.256,2.036-2.229 c0.64-0.973,1.087-1.922,1.345-2.842C294.957,101.412,294.239,99.286,294.239,96.264z"/>
</svg>